<svg width="24" height="24" viewBox="0 0 24 24" fill="none" xmlns="http://www.w3.org/2000/svg">
<path d="M0.75 11.25C0.751242 10.0569 1.22574 8.91303 2.06939 8.06939C2.91303 7.22575 4.05691 6.75124 5.25 6.75H8.98125C9.25406 6.73406 14.0081 6.39937 18.5353 2.6025C18.7539 2.41889 19.0204 2.30149 19.3034 2.26408C19.5865 2.22666 19.8743 2.2708 20.1331 2.3913C20.3919 2.5118 20.611 2.70365 20.7645 2.94433C20.9181 3.18501 20.9998 3.46451 21 3.75V18.75C21 19.0356 20.9184 19.3152 20.7649 19.556C20.6114 19.7968 20.3924 19.9888 20.1335 20.1094C19.8747 20.2301 19.5868 20.2743 19.3037 20.2369C19.0206 20.1995 18.754 20.0821 18.5353 19.8984C14.9944 16.9284 11.3166 16.0772 9.75 15.8391V18.8128C9.75031 19.06 9.68954 19.3034 9.57309 19.5214C9.45664 19.7395 9.28811 19.9253 9.0825 20.0625L8.05125 20.7497C7.85192 20.8827 7.62362 20.9661 7.38546 20.9927C7.1473 21.0194 6.90622 20.9886 6.68241 20.903C6.45859 20.8173 6.25855 20.6793 6.09904 20.5004C5.93954 20.3216 5.82521 20.1071 5.76562 19.875L4.66219 15.7163C3.57963 15.5722 2.58621 15.04 1.86662 14.2185C1.14702 13.397 0.750229 12.3421 0.75 11.25ZM19.5 18.7434V3.75C15.4866 7.11656 11.3784 7.96875 9.75 8.17875V14.3175C11.3766 14.5313 15.4837 15.3816 19.5 18.7434ZM7.21875 19.4934V19.5037L8.25 18.8166V15.75H6.225L7.21875 19.4934ZM5.25 14.25H8.25V8.25H5.25C4.45435 8.25 3.69129 8.56607 3.12868 9.12868C2.56607 9.69129 2.25 10.4544 2.25 11.25C2.25 12.0456 2.56607 12.8087 3.12868 13.3713C3.69129 13.9339 4.45435 14.25 5.25 14.25Z" fill="black"/>
</svg>
