<svg width="30" height="25" viewBox="0 0 30 25" fill="none" xmlns="http://www.w3.org/2000/svg">
<path d="M23.1576 0.151836C23.7302 0.479305 23.8373 1.13424 23.5192 1.72096L21.5973 5.63693C21.2792 6.22024 20.6531 6.517 20.0772 6.19295C19.5046 5.86889 19.2937 5.12526 19.6151 4.54196L21.537 0.625983C21.8551 0.0392689 22.5783 -0.172221 23.1576 0.151836ZM29.9948 13.5985C29.9312 14.2671 29.3553 14.7583 28.699 14.6935L24.3931 14.2807C23.7369 14.2193 23.2547 13.6292 23.315 12.9606C23.3752 12.292 23.911 11.91 24.5672 11.9714L28.8731 12.3841C29.5294 12.4455 30.0584 12.9299 29.9948 13.5985ZM29.5796 5.33334C29.8977 5.91665 29.6935 6.66027 29.1176 6.98774L24.2424 9.84627C23.6665 10.1703 22.94 9.96225 22.6185 9.37553C22.2971 8.78882 22.5047 8.0486 23.0806 7.72113L27.9557 4.86602C28.5316 4.53855 29.2615 4.75004 29.5796 5.33334ZM11.3783 0.376971C10.7622 0.690795 10.2566 1.21952 9.8582 1.90516L9.85485 1.90857C9.85485 1.90857 8.60929 4.05417 7.35368 6.25435C6.72085 7.35614 6.08803 8.47158 5.59918 9.34483C5.3514 9.77804 5.15051 10.1567 4.99314 10.4432C4.94961 10.5251 4.90943 10.6001 4.8726 10.6649L2.60581 11.8111C0.198389 13.0391 -0.702301 16.1841 0.590139 18.8482L2.08347 21.908C3.38596 24.5687 6.39272 25.7353 8.80014 24.5175L11.1942 23.3066C12.0781 23.4294 14.3148 23.6648 16.4342 23.8831C18.6876 24.115 20.7636 24.3163 20.7669 24.3163C21.527 24.3845 22.2268 24.289 22.8328 23.9854L22.8663 23.9683C23.6029 23.5965 24.1554 22.8461 24.2994 21.9728C24.4534 21.0859 24.2558 20.1445 23.8105 19.2337L15.6273 2.45094C15.1887 1.5504 14.586 0.830651 13.8092 0.414493C13.0424 -0.00507566 12.1149 -0.00848648 11.3783 0.376971ZM9.19189 22.0206L7.94298 22.6516C6.46638 23.3919 4.62817 22.7335 3.87146 21.1883L2.24754 17.8556C1.49418 16.3069 2.08682 14.4172 3.56007 13.6667L4.81233 13.0357L9.19189 22.0206ZM22.2636 21.7477C22.2167 21.949 22.1665 22.0342 21.9455 22.1639C21.7614 22.256 21.4433 22.3344 20.9712 22.2901C20.9745 22.2901 18.7479 22.0479 16.2099 21.7818C14.9409 21.6522 13.6585 21.5192 12.6775 21.4032C12.1853 21.352 11.7667 21.3008 11.4687 21.2599C11.3214 21.2394 11.1975 21.2224 11.1172 21.2156C11.1004 21.2122 11.0837 21.2122 11.0736 21.2087L10.9732 21.1746L6.47978 11.9782C6.59027 11.7565 6.96193 11.0743 7.42399 10.2556C8.98765 7.47212 11.6864 3.3583 11.7433 3.2355C11.9911 2.81252 12.2455 2.59762 12.4196 2.50893C12.6373 2.41683 12.7109 2.42365 12.8884 2.50552C13.0592 2.59421 13.3505 2.85345 13.6284 3.42311L21.9991 20.5743C22.2737 21.1473 22.3004 21.543 22.2636 21.7477Z" fill="#2B03A2"/>
</svg>
