<svg width="92" height="112" viewBox="0 0 92 112" fill="none" xmlns="http://www.w3.org/2000/svg">
<g filter="url(#filter0_dddd_28_113)">
<circle cx="46" cy="36" r="34" fill="white"/>
</g>
<path d="M54.1576 23.1518C54.7302 23.4793 54.8373 24.1342 54.5192 24.721L52.5973 28.6369C52.2792 29.2202 51.6531 29.517 51.0772 29.1929C50.5046 28.8689 50.2937 28.1253 50.6151 27.542L52.537 23.626C52.8551 23.0393 53.5783 22.8278 54.1576 23.1518ZM60.9948 36.5985C60.9312 37.2671 60.3553 37.7583 59.699 37.6935L55.3931 37.2807C54.7369 37.2193 54.2547 36.6292 54.315 35.9606C54.3752 35.292 54.911 34.91 55.5672 34.9714L59.8731 35.3841C60.5294 35.4455 61.0584 35.9299 60.9948 36.5985ZM60.5796 28.3333C60.8977 28.9166 60.6935 29.6603 60.1176 29.9877L55.2424 32.8463C54.6665 33.1703 53.94 32.9622 53.6185 32.3755C53.2971 31.7888 53.5047 31.0486 54.0806 30.7211L58.9557 27.866C59.5316 27.5385 60.2615 27.75 60.5796 28.3333ZM42.3783 23.377C41.7622 23.6908 41.2566 24.2195 40.8582 24.9052L40.8549 24.9086C40.8549 24.9086 39.6093 27.0542 38.3537 29.2543C37.7209 30.3561 37.088 31.4716 36.5992 32.3448C36.3514 32.778 36.1505 33.1567 35.9931 33.4432C35.9496 33.5251 35.9094 33.6001 35.8726 33.6649L33.6058 34.8111C31.1984 36.0391 30.2977 39.1841 31.5901 41.8482L33.0835 44.908C34.386 47.5687 37.3927 48.7353 39.8001 47.5175L42.1942 46.3066C43.0781 46.4294 45.3148 46.6648 47.4342 46.8831C49.6876 47.115 51.7636 47.3163 51.7669 47.3163C52.527 47.3845 53.2268 47.289 53.8328 46.9854L53.8663 46.9683C54.6029 46.5965 55.1554 45.8461 55.2994 44.9728C55.4534 44.0859 55.2558 43.1445 54.8105 42.2337L46.6273 25.4509C46.1887 24.5504 45.586 23.8307 44.8092 23.4145C44.0424 22.9949 43.1149 22.9915 42.3783 23.377ZM40.1919 45.0206L38.943 45.6516C37.4664 46.3919 35.6282 45.7335 34.8715 44.1883L33.2475 40.8556C32.4942 39.3069 33.0868 37.4172 34.5601 36.6667L35.8123 36.0357L40.1919 45.0206ZM53.2636 44.7477C53.2167 44.949 53.1665 45.0342 52.9455 45.1639C52.7614 45.256 52.4433 45.3344 51.9712 45.2901C51.9745 45.2901 49.7479 45.0479 47.2099 44.7818C45.9409 44.6522 44.6585 44.5192 43.6775 44.4032C43.1853 44.352 42.7667 44.3008 42.4687 44.2599C42.3214 44.2394 42.1975 44.2224 42.1172 44.2156C42.1004 44.2122 42.0837 44.2122 42.0736 44.2087L41.9732 44.1746L37.4798 34.9782C37.5903 34.7565 37.9619 34.0743 38.424 33.2556C39.9876 30.4721 42.6864 26.3583 42.7433 26.2355C42.9911 25.8125 43.2455 25.5976 43.4196 25.5089C43.6373 25.4168 43.7109 25.4236 43.8884 25.5055C44.0592 25.5942 44.3505 25.8535 44.6284 26.4231L52.9991 43.5743C53.2737 44.1473 53.3004 44.543 53.2636 44.7477Z" fill="#2B03A2"/>
<defs>
<filter id="filter0_dddd_28_113" x="0" y="0" width="92" height="112" filterUnits="userSpaceOnUse" color-interpolation-filters="sRGB">
<feFlood flood-opacity="0" result="BackgroundImageFix"/>
<feColorMatrix in="SourceAlpha" type="matrix" values="0 0 0 0 0 0 0 0 0 0 0 0 0 0 0 0 0 0 127 0" result="hardAlpha"/>
<feOffset dy="2"/>
<feGaussianBlur stdDeviation="2"/>
<feColorMatrix type="matrix" values="0 0 0 0 0 0 0 0 0 0 0 0 0 0 0 0 0 0 0.1 0"/>
<feBlend mode="normal" in2="BackgroundImageFix" result="effect1_dropShadow_28_113"/>
<feColorMatrix in="SourceAlpha" type="matrix" values="0 0 0 0 0 0 0 0 0 0 0 0 0 0 0 0 0 0 127 0" result="hardAlpha"/>
<feOffset dy="7"/>
<feGaussianBlur stdDeviation="3.5"/>
<feColorMatrix type="matrix" values="0 0 0 0 0 0 0 0 0 0 0 0 0 0 0 0 0 0 0.09 0"/>
<feBlend mode="normal" in2="effect1_dropShadow_28_113" result="effect2_dropShadow_28_113"/>
<feColorMatrix in="SourceAlpha" type="matrix" values="0 0 0 0 0 0 0 0 0 0 0 0 0 0 0 0 0 0 127 0" result="hardAlpha"/>
<feOffset dy="17"/>
<feGaussianBlur stdDeviation="5"/>
<feColorMatrix type="matrix" values="0 0 0 0 0 0 0 0 0 0 0 0 0 0 0 0 0 0 0.05 0"/>
<feBlend mode="normal" in2="effect2_dropShadow_28_113" result="effect3_dropShadow_28_113"/>
<feColorMatrix in="SourceAlpha" type="matrix" values="0 0 0 0 0 0 0 0 0 0 0 0 0 0 0 0 0 0 127 0" result="hardAlpha"/>
<feOffset dy="30"/>
<feGaussianBlur stdDeviation="6"/>
<feColorMatrix type="matrix" values="0 0 0 0 0 0 0 0 0 0 0 0 0 0 0 0 0 0 0.01 0"/>
<feBlend mode="normal" in2="effect3_dropShadow_28_113" result="effect4_dropShadow_28_113"/>
<feBlend mode="normal" in="SourceGraphic" in2="effect4_dropShadow_28_113" result="shape"/>
</filter>
</defs>
</svg>
